<?xml version="1.0" encoding="UTF-8"?>
<svg width="16px" height="16px" viewBox="0 0 16 16" version="1.1" xmlns="http://www.w3.org/2000/svg" xmlns:xlink="http://www.w3.org/1999/xlink">
    <title>审核管理</title>
    <g id="页面-1" stroke="none" stroke-width="1" fill="none" fill-rule="evenodd">
        <g id="画板" transform="translate(-415.000000, -274.000000)" fill="#747787">
            <g id="编组-14" transform="translate(394.000000, 0.000000)">
                <g id="审核管理" transform="translate(21.000000, 274.000000)">
                    <g id="编组-9">
                        <rect id="矩形" x="4" y="4" width="7" height="2"></rect>
                        <rect id="矩形备份-22" x="4" y="7" width="4" height="2"></rect>
                        <polygon id="路径" fill-rule="nonzero" points="15 0 15 5 13.2352941 5 13.2352941 1.77777778 1.76470588 1.77777778 1.76470588 14.2222222 7.78088567 14.2222222 7.78088567 16 0 16 0 0"></polygon>
                    </g>
                    <rect id="矩形" x="9" y="11" width="7" height="3"></rect>
                    <g id="编组" transform="translate(9.000000, 6.000000)" fill-rule="nonzero">
                        <path d="M3.5,0 C4.43916667,0 5.19983333,0.779428571 5.19983333,1.74114286 C5.19983333,2.228 5.005,2.668 4.69058333,2.984 L4.69525,2.97542857 C4.56516667,3.16685714 4.46308333,3.56971429 4.46308333,3.88685714 C4.46308333,4.41371429 4.66491667,4.88285714 5.1205,5.09885714 L7,5.09828571 L0,5.09828571 L1.81066667,5.09828571 L1.83983333,5.08457143 C2.27966667,4.86285714 2.56783333,4.40228571 2.56783333,3.88685714 C2.56783333,3.60628571 2.48791667,3.25828571 2.37941667,3.04971429 C2.00744165,2.71247046 1.79725013,2.23763123 1.80016667,1.74114286 C1.80016667,0.779428571 2.56083333,0 3.5,0 Z M3.70416667,3.46971429 C3.5793483,3.48569165 3.45301686,3.48684284 3.32791667,3.47314286 C3.35008333,3.61314286 3.36116667,3.75314286 3.36116667,3.88685714 C3.36116667,4.33142857 3.22816667,4.75028571 2.996,5.09828571 L4.03608333,5.09828571 C3.79657446,4.7378765 3.66947629,4.31690491 3.67033333,3.88685714 C3.67033333,3.75257143 3.682,3.61142857 3.70416667,3.46971429 L3.70416667,3.46971429 Z" id="形状"></path>
                    </g>
                    <rect id="矩形" x="9" y="15" width="7" height="1"></rect>
                </g>
            </g>
        </g>
    </g>
</svg>