<?xml version="1.0" encoding="UTF-8"?>
<svg width="16px" height="16px" viewBox="0 0 16 16" version="1.1" xmlns="http://www.w3.org/2000/svg" xmlns:xlink="http://www.w3.org/1999/xlink">
    <title>编组 11备份</title>
    <g id="页面-1" stroke="none" stroke-width="1" fill="none" fill-rule="evenodd">
        <g id="图标" transform="translate(-21.000000, -398.000000)" fill="#3157EA">
            <g id="编组-11备份" transform="translate(21.000000, 398.000000)">
                <polygon id="路径" fill-rule="nonzero" points="16 0 16 16 1 16 1 12.2838791 2.76470588 12.2838791 2.76470588 14.2222222 14.2352941 14.2222222 14.2352941 1.77777778 2.76470588 1.77777778 2.76470588 3.79867611 1 3.79867611 1 9.86864911e-17 1.88235294 0"></polygon>
                <path d="M11.4993043,4.5483525 C11.7544408,4.76961608 11.7838719,5.1580786 11.5650435,5.41604481 L10.8327826,6.28004481 L11.5869565,6.28004481 C11.9231298,6.28004481 12.1956522,6.55556189 12.1956522,6.89542943 L12.1956522,7.51081404 C12.1956522,7.85068158 11.9231298,8.12619866 11.5869565,8.12619866 L9.76086957,8.12619866 L9.76086957,8.74158327 L11.5869565,8.74158327 C11.9231298,8.74158327 12.1956522,9.01710035 12.1956522,9.35696789 L12.1956522,9.9723525 C12.1956522,10.31222 11.9231298,10.5877371 11.5869565,10.5877371 L9.76086957,10.5877371 L9.76086957,11.8185064 C9.76086957,12.1583739 9.48834724,12.433891 9.15217391,12.433891 L8.54347826,12.433891 C8.20730493,12.433891 7.93478261,12.1583739 7.93478261,11.8185064 L7.93478261,10.5877371 L6.10869565,10.5877371 C5.77252233,10.5877371 5.5,10.31222 5.5,9.9723525 L5.5,9.35696789 C5.5,9.01710035 5.77252233,8.74158327 6.10869565,8.74158327 L7.93478261,8.74158327 L7.93478261,8.12619866 L6.10869565,8.12619866 C5.77252233,8.12619866 5.5,7.85068158 5.5,7.51081404 L5.5,6.89542943 C5.5,6.55556189 5.77252233,6.28004481 6.10869565,6.28004481 L6.86226087,6.28004481 L6.1306087,5.4166602 C5.91178026,5.15869399 5.94121142,4.77023147 6.19634783,4.54896789 L6.65895652,4.1483525 C6.91411875,3.92711936 7.29835885,3.95687394 7.51721739,4.21481404 L8.84782609,5.7846602 L10.1784348,4.21542943 C10.2833637,4.09138251 10.4327395,4.01456057 10.5936971,4.00186561 C10.7546547,3.98917064 10.9140076,4.0416427 11.0366957,4.14773712 L11.4993043,4.5483525 Z" id="路径"></path>
                <rect id="矩形" x="0" y="5.5" width="3.5" height="2"></rect>
                <rect id="矩形备份-22" x="0" y="8.5" width="3.5" height="2"></rect>
            </g>
        </g>
    </g>
</svg>