<?xml version="1.0" encoding="UTF-8"?>
<svg width="16px" height="16px" viewBox="0 0 16 16" version="1.1" xmlns="http://www.w3.org/2000/svg" xmlns:xlink="http://www.w3.org/1999/xlink">
    <title>资源管理</title>
    <g id="页面-1" stroke="none" stroke-width="1" fill="none" fill-rule="evenodd">
        <g id="画板" transform="translate(-415.000000, -150.000000)">
            <g id="编组-14" transform="translate(394.000000, 0.000000)">
                <g id="资源管理" transform="translate(21.000000, 150.000000)">
                    <g id="编组-7" transform="translate(9.027097, 7.969501)">
                        <path d="M3.48645125,0.066720357 L5.96003823,1.51682767 L5.96003823,4.43034628 L3.48645125,5.88045359 L1.01286428,4.43034628 L1.01286428,1.51682767 L3.48645125,0.066720357 Z" id="多边形" stroke="#747787" transform="translate(3.486451, 2.973587) rotate(90.000000) translate(-3.486451, -2.973587) "></path>
                        <ellipse id="椭圆形" fill="#747787" cx="3.43664481" cy="2.92453551" rx="1" ry="1"></ellipse>
                    </g>
                    <polygon id="路径" fill="#747787" fill-rule="nonzero" points="7.03483964 0 7.5329041 0.28319876 13.5716148 3.71680124 14.0696793 4 14.0696793 7.63757359 12.0774214 7.63757359 12.0770671 5.13245141 7.0346625 2.26588386 1.99225786 5.13245141 1.99225786 10.8665676 7.0346625 13.7331351 9.3849902 12.2839509 10.3811191 13.9831435 7.5329041 15.7168012 7.03483964 16 6.53677517 15.7168012 0.498064465 12.2831988 0 12 0 4 0.498064465 3.71680124 6.53677517 0.28319876"></polygon>
                    <path d="M3.40530654,7.89645776 L5.26513056,8.97864521 C5.48431761,9.09557064 5.57253786,9.35977953 5.46631746,9.58117544 C5.36009705,9.80257136 5.09627007,9.9043808 4.86465816,9.81335259 L4.80686502,9.78668463 L2.94704101,8.70449719 C2.72785392,8.58757178 2.63963364,8.32336287 2.74585404,8.10196692 C2.85207445,7.88057098 3.11590147,7.77876154 3.3475134,7.86978979 L3.40530654,7.89645776 Z" id="路径" fill="#747787"></path>
                    <path d="M1.12492555,4.51715952 L7.03483964,8 L13.0735503,4.56639752 M7.09923795,8 L7.09923795,14.867205" id="形状结合" stroke="#747787" stroke-width="2"></path>
                </g>
            </g>
        </g>
    </g>
</svg>