<?xml version="1.0" encoding="UTF-8"?>
<svg width="16px" height="16px" viewBox="0 0 16 16" version="1.1" xmlns="http://www.w3.org/2000/svg" xmlns:xlink="http://www.w3.org/1999/xlink">
    <title>编组</title>
    <g id="页面-1" stroke="none" stroke-width="1" fill="none" fill-rule="evenodd">
        <g id="图标" transform="translate(-21.000000, -522.000000)" fill="#3157EA" fill-rule="nonzero">
            <g id="编组" transform="translate(21.000000, 522.000000)">
                <path d="M8.68123386,8.58338149 L9.84369003,8.58338149 C9.87990362,8.4058708 9.91430653,8.19507685 9.91430653,8.01756616 C9.91430653,6.74540622 8.78806394,5.68588929 7.48437477,5.82826765 C6.49936518,5.93366462 5.68999148,6.74540622 5.58497208,7.7346585 C5.44373909,9.04195077 6.46496227,10.1717323 7.76684076,10.1717323 L7.76684076,9.53565237 C7.73062717,9.00681844 8.15432615,8.58153242 8.68123386,8.58338149 M15.7193447,16 L9.17373865,16 C9.03250566,16 8.89308335,15.8243384 8.89308335,15.6116954 L8.89308335,14.6945568 C8.89308335,14.4819138 8.99810275,14.3062522 9.17373865,14.3062522 L15.7193447,14.3062522 C15.8605777,14.3062522 16,14.4819138 16,14.6945568 L16,15.6116954 C15.9655971,15.8243384 15.8605777,16 15.7193447,16 M15.7211554,13.6683231 L9.17373865,13.6683231 C9.03250566,13.6683231 8.89308335,13.4926615 8.89308335,13.2800185 L8.89308335,12.3628799 C8.89308335,12.1502369 8.99810275,11.9745753 9.17373865,11.9745753 L15.7193447,11.9745753 C15.8605777,11.9745753 16,12.1502369 16,12.3628799 L16,13.2800185 C15.9655971,13.4926615 15.8605777,13.6683231 15.7211554,13.6683231 M15.7211554,11.3366462 L9.17373865,11.3366462 C9.03250566,11.3366462 8.89308335,11.1609846 8.89308335,10.9483416 L8.89308335,10.0312031 C8.89308335,9.81856004 8.99810275,9.64289842 9.17373865,9.64289842 L15.7193447,9.64289842 C15.8605777,9.64289842 16,9.81856004 16,10.0312031 L16,10.9483416 C15.9655971,11.1609846 15.8605777,11.3366462 15.7211554,11.3366462 Z M4.4225159,8.01756616 C4.4225159,9.85369236 5.90003029,11.3717786 7.76503008,11.3717786 L7.76503008,15.9981509 L6.39434577,15.9981509 C5.86562739,15.9981509 5.44373909,15.6098463 5.40933618,15.0810124 L5.23370027,13.9142494 C4.75930227,13.7127008 4.31025378,13.4501329 3.8956082,13.1376401 L2.80376852,13.5962094 C2.58648699,13.7090027 2.33480255,13.7330406 2.10122491,13.6664741 C1.85497251,13.5888131 1.64312302,13.4279441 1.50189003,13.2079048 L0.12939504,10.8429446 C-0.116857359,10.3843754 -0.0118379536,9.81856004 0.446263935,9.53565237 L1.39687062,8.79417543 C1.36065703,8.51126777 1.36065703,8.26349243 1.36065703,8.01756616 C1.36065703,7.76979082 1.36065703,7.52201549 1.39687062,7.23910782 L0.482477523,6.49763088 C0.0352397108,6.23506298 -0.122289397,5.65260603 0.12939504,5.19218768 L1.50189003,2.82537848 C1.78254533,2.36496013 2.34747731,2.18929851 2.80376852,2.43707385 L3.8956082,2.89564313 C4.3174965,2.57760314 4.74119548,2.32982781 5.23370027,2.11903386 L5.37493327,0.918987634 C5.40933618,0.423436958 5.83303516,0 6.35994286,0 L9.10493284,0 C9.63184054,0 10.0555395,0.423436958 10.0555395,0.954119958 L10.2311754,2.11903386 C10.7164375,2.30024269 11.1691074,2.56281059 11.5692675,2.89564313 L12.6592965,2.43707385 C12.8693353,2.32982781 13.1173984,2.29654455 13.3618401,2.3668092 C13.6099032,2.43707385 13.819942,2.61458454 13.961175,2.82722755 L15.3680729,5.19403675 C15.6143253,5.64705882 15.4767137,6.21657229 15.051204,6.50132902 L14.1005973,7.24280596 C14.1368109,7.4905813 14.1368109,7.77163989 14.1368109,8.0212643 C14.1368109,8.19692592 14.1368109,8.40956894 14.1005973,8.58707963 L11.074952,8.58707963 C11.074952,8.40956894 11.1111656,8.23205825 11.1111656,8.0212643 C11.1111656,6.18328903 9.59743763,4.66520282 7.76684076,4.66520282 C5.93624388,4.66150468 4.42432658,6.18143996 4.4225159,8.01756616 Z" id="形状"></path>
            </g>
        </g>
    </g>
</svg>